<svg width="22" height="21" viewBox="0 0 22 21" fill="none" xmlns="http://www.w3.org/2000/svg">
<path d="M14.4517 2.56641C12.9277 2.56641 11.465 3.25938 10.5103 4.35445C9.55556 3.25938 8.09284 2.56641 6.56881 2.56641C3.8711 2.56641 1.75146 4.63677 1.75146 7.27178C1.75146 10.5057 4.72946 13.1407 9.24024 17.1445L10.5103 18.2652L11.7803 17.136C16.2911 13.1407 19.2691 10.5057 19.2691 7.27178C19.2691 4.63677 17.1494 2.56641 14.4517 2.56641ZM10.5979 15.8698L10.5103 15.9553L10.4227 15.8698C6.25349 12.1825 3.50323 9.74424 3.50323 7.27178C3.50323 5.56074 4.81705 4.27745 6.56881 4.27745C7.91766 4.27745 9.23148 5.12442 9.6957 6.29649H11.3336C11.7891 5.12442 13.1029 4.27745 14.4517 4.27745C16.2035 4.27745 17.5173 5.56074 17.5173 7.27178C17.5173 9.74424 14.767 12.1825 10.5979 15.8698Z" fill="#FF0000"/>
</svg>
