<svg width="30" height="30" viewBox="0 0 30 30" fill="none" xmlns="http://www.w3.org/2000/svg">
<g clip-path="url(#clip0_80_219)">
<path d="M5.625 15C7.35089 15 8.75 13.6009 8.75 11.875C8.75 10.1491 7.35089 8.75 5.625 8.75C3.89911 8.75 2.5 10.1491 2.5 11.875C2.5 13.6009 3.89911 15 5.625 15Z" fill="#ACDEAA"/>
<path d="M11.25 10C12.9759 10 14.375 8.60089 14.375 6.875C14.375 5.14911 12.9759 3.75 11.25 3.75C9.52411 3.75 8.125 5.14911 8.125 6.875C8.125 8.60089 9.52411 10 11.25 10Z" fill="#ACDEAA"/>
<path d="M18.75 10C20.4759 10 21.875 8.60089 21.875 6.875C21.875 5.14911 20.4759 3.75 18.75 3.75C17.0241 3.75 15.625 5.14911 15.625 6.875C15.625 8.60089 17.0241 10 18.75 10Z" fill="#ACDEAA"/>
<path d="M24.375 15C26.1009 15 27.5 13.6009 27.5 11.875C27.5 10.1491 26.1009 8.75 24.375 8.75C22.6491 8.75 21.25 10.1491 21.25 11.875C21.25 13.6009 22.6491 15 24.375 15Z" fill="#ACDEAA"/>
<path d="M21.6748 18.575C20.5873 17.3 19.6748 16.2125 18.5748 14.9375C17.9998 14.2625 17.2623 13.5875 16.3873 13.2875C16.2498 13.2375 16.1123 13.2 15.9748 13.175C15.6623 13.125 15.3248 13.125 14.9998 13.125C14.6748 13.125 14.3373 13.125 14.0123 13.1875C13.8748 13.2125 13.7373 13.25 13.5998 13.3C12.7248 13.6 11.9998 14.275 11.4123 14.95C10.3248 16.225 9.41231 17.3125 8.31231 18.5875C6.67481 20.225 4.66231 22.0375 5.03731 24.575C5.39981 25.85 6.31231 27.1125 7.94981 27.475C8.86231 27.6625 11.7748 26.925 14.8748 26.925H15.0998C18.1998 26.925 21.1123 27.65 22.0248 27.475C23.6623 27.1125 24.5748 25.8375 24.9373 24.575C25.3248 22.025 23.3123 20.2125 21.6748 18.575Z" fill="#ACDEAA"/>
</g>
<defs>
<clipPath id="clip0_80_219">
<rect width="30" height="30" fill="white"/>
</clipPath>
</defs>
</svg>
